<svg width="80px" height="80px" viewBox="0 0 80 80" version="1.1" xmlns="http://www.w3.org/2000/svg" xmlns:xlink="http://www.w3.org/1999/xlink">
    <g id="final" stroke="none" stroke-width="1" fill="none" fill-rule="evenodd">
        <g id="pc端1440" transform="translate(-186.000000, -2552.000000)">
            <g id="编组-2" transform="translate(186.000000, 2552.000000)">
                <rect id="矩形" x="0" y="0" width="80" height="80"></rect>
                <path d="M6.03773585,72 C4.91232542,72 4,71.0888563 4,69.9649036 C4,68.9070658 4.80814985,68.037737 5.84148829,67.9391233 L6.03773585,67.9298072 L19.834,67.929 L5.51581322,53.6098595 C3.71758065,51.8116269 3.66492212,48.9281394 5.35647507,47.0619407 L5.52016811,46.8900291 L42.022888,10.3873092 C43.8234528,8.5867444 46.707011,8.53034846 48.5710187,10.219484 L48.7427183,10.3829543 L71.7672056,33.4074417 C73.5654382,35.2056742 73.6180967,38.0891617 71.9265438,39.9553604 L71.7628508,40.127272 L43.959,67.929 L73.9622642,67.9298072 C75.0876746,67.9298072 76,68.8409509 76,69.9649036 C76,71.0227414 75.1918502,71.8920703 74.1585117,71.9906839 L73.9622642,72 L6.03773585,72 Z M44.985134,13.1937413 L44.9009489,13.2653701 L8.39822902,49.76809 C8.15949342,50.0068256 8.13539424,50.3788338 8.32608713,50.6439734 L8.3976069,50.7280658 L25.598,67.929 L38.203,67.929 L68.8847898,37.2492111 C69.1235254,37.0104755 69.1476246,36.6384673 68.9569317,36.3733277 L68.885412,36.2892353 L45.8609247,13.264748 C45.6224983,13.0263216 45.2505211,13.0027046 44.985134,13.1937413 Z M45.5571846,19.7511668 C46.5846278,20.0044597 47.2347061,20.996779 47.0820807,22.0230603 L47.043953,22.2157138 L41.35687,45.1711623 C41.1940482,45.8283794 40.7172475,46.3570963 40.091882,46.5910094 L39.8781514,46.6578337 L16.7472977,52.5203219 C15.6567507,52.7967198 14.5497687,52.1370113 14.2747841,51.0468217 C14.015975,50.0207609 14.5864009,48.9790668 15.5636015,48.6296303 L15.7514903,48.5723961 L37.6967017,43.0096791 L43.0907085,21.2411308 C43.3612473,20.1491227 44.4655263,19.4820431 45.5571846,19.7511668 Z" id="形状结合" fill="#5587F2" fill-rule="nonzero"></path>
            </g>
        </g>
    </g>
</svg>