<svg width="80px" height="80px" viewBox="0 0 80 80" version="1.1" xmlns="http://www.w3.org/2000/svg" xmlns:xlink="http://www.w3.org/1999/xlink">
    <g id="final" stroke="none" stroke-width="1" fill="none" fill-rule="evenodd">
        <g id="pc端1440" transform="translate(-1057.000000, -2552.000000)">
            <g id="编组-6" transform="translate(1057.000000, 2552.000000)">
                <rect id="矩形备份-10" x="0" y="0" width="80" height="80"></rect>
                <path d="M68.6597759,11.2401338 C69.8058258,10.6744411 71.1918466,11.1437089 71.760029,12.2750945 C71.9235967,12.5911539 71.9903151,12.9361408 72,13.2629141 C72,13.4150512 71.9903151,13.5789735 71.9612603,13.7311106 C69.0414753,29.6099444 66.8516365,41.5190698 65.391744,49.4584867 C64.9713256,51.7448717 64.3406982,55.1744492 63.4998615,59.7472192 C63.2878692,60.8786048 62.2774084,61.6639321 61.1604133,61.6350046 C60.8999964,61.6457185 60.6406555,61.6071485 60.3813147,61.5300086 L60.3813147,61.5300086 L46.37,57.154 L37.8676958,69.0911586 C37.2320944,69.9833835 36.032987,70.2498493 35.0830342,69.7512361 C34.2495253,69.4029564 33.6659788,68.5846272 33.6659788,67.6262055 L33.6659788,67.6262055 L33.6659788,53.1913969 L8.62721151,45.3702655 C8.27102137,45.255627 7.97294081,45.0734911 7.72220879,44.8335002 C7.52958633,44.6513642 7.36601866,44.4306583 7.24119069,44.1820964 C6.67300825,43.0421397 7.14434141,41.6611207 8.2807063,41.0954279 L8.2807063,41.0954279 Z M38.2878416,54.6291994 L38.287,61.061 L42.035,55.8 L38.2878416,54.6291994 Z M65.8393097,21.532957 L41.5409014,50.8236297 L59.4182024,56.4119888 L65.8393097,21.532957 Z M60.9581059,20.1830083 L15.4819883,42.6864389 L36.4778362,49.7126005 L36.5511457,49.6030511 L36.5511457,49.6030511 L36.6317189,49.5015371 L60.9581059,20.1830083 Z" id="形状结合" fill="#5587F2"></path>
            </g>
        </g>
    </g>
</svg>