<svg width="80px" height="80px" viewBox="0 0 80 80" version="1.1" xmlns="http://www.w3.org/2000/svg" xmlns:xlink="http://www.w3.org/1999/xlink">
    <g id="final" stroke="none" stroke-width="1" fill="none" fill-rule="evenodd">
        <g id="pc端1440" transform="translate(-763.000000, -2552.000000)">
            <g id="编组-5" transform="translate(763.000000, 2552.000000)">
                <rect id="矩形备份-9" x="0" y="0" width="80" height="80"></rect>
                <path d="M57.2820727,73 C55.9820745,73 54.7519005,72.4891957 53.8464539,71.560807 L39.2678121,56.9820745 L28.264256,68.0090262 C27.9858664,68.2409874 27.7534518,68.3801822 27.5214906,68.4500063 C27.4750621,68.4730392 27.289076,68.5427727 27.2426475,68.5427727 L10.9464231,71.2125932 L10.6445471,71.2356261 L10.6216049,70.7712503 L10.3661574,71.2125932 L10.1338335,71.1427691 C10.0105078,71.1165623 9.89289496,71.0694991 9.78561972,71.0035742 C9.76258683,71.0035742 9.55356787,70.8874123 9.55356787,70.8640167 C9.42752172,70.803442 9.32260418,70.7064136 9.25178257,70.585627 C9.19048244,70.5218785 9.13598335,70.4516916 9.08919212,70.376608 C9.01973072,70.2608088 8.94999728,70.1446468 8.90356877,70.0053613 C8.90356877,69.9820564 8.81080244,69.7730374 8.81080244,69.7500045 C8.81080244,69.703576 8.78740683,69.4946477 8.81080244,69.4482192 C8.77607174,69.3274326 8.7682732,69.2005703 8.78740683,69.0766098 L11.4571366,52.7802947 C11.5733893,52.385743 11.6661556,52.1533285 11.8283833,51.9677051 C11.8517789,51.9213673 11.9445453,51.7820818 11.9909738,51.7587768 L22.9945299,40.7552208 L8.41616013,26.1534554 C7.51080425,25.2480995 7,23.9945299 7,22.7179273 C7,21.4179291 7.51080425,20.1873016 8.41616013,19.2819458 L18.2589129,9.43919303 C19.1873016,8.51080425 20.3945335,8 21.6945317,8 C23.0179255,8 24.2480995,8.51080425 25.1534554,9.43919303 L39.7321879,24.0179255 L53.0105594,10.7391912 C53.9857394,9.74097832 55.3086798,9.20723185 56.7018977,9.18383624 C58.0018959,9.18383624 59.1856415,9.6716076 60.0676924,10.5535679 L69.4464321,19.9323076 C70.3982165,20.8837292 70.8856252,22.1372989 70.815801,23.5071212 C70.7464303,24.830515 70.2125932,26.0606891 69.2608088,26.9890779 L55.9820745,40.2912077 L70.560807,54.8694868 C71.4891957,55.7982383 72,57.0051074 72,58.3054683 C72,59.6054665 71.4891957,60.8356406 70.560807,61.7410871 L60.7176915,71.5838399 C59.812245,72.4891957 58.6054665,73 57.2820727,73 Z M56.4230547,68.1946496 C56.608678,68.3801822 56.8875211,68.4964349 57.1428779,68.4964349 C57.4212675,68.4964349 57.7000199,68.3801822 57.8856433,68.1946496 L67.1712539,58.8856433 C67.35724,58.7000199 67.4730392,58.4212675 67.4730392,58.1428779 C67.4730392,57.8641255 67.35724,57.608678 67.1712539,57.4001124 L52.9875265,43.2160223 L42.2160223,53.9875265 L45.4893227,57.2604642 L51.2231526,51.526725 C51.5483335,51.2015441 52.0357421,51.0393164 52.5928842,51.0393164 C53.2194877,51.0393164 53.823149,51.2713682 54.2177006,51.6428869 C54.9605567,52.385743 54.9605567,53.7785076 54.2410962,54.4983308 L48.4839614,60.23207 L50.6194913,62.3676906 L56.4001124,56.5875229 C56.7249306,56.262342 57.1893064,56.1001143 57.7000199,56.1001143 C58.3036812,56.1001143 58.8838562,56.3320754 59.2554656,56.7036848 C59.9518932,57.4001124 60.1838544,58.7464485 59.4410889,59.4893046 L53.5910971,65.3392057 L56.4230547,68.1946496 Z M13.4301668,66.6158083 L22.6927446,65.1072445 L14.939184,57.3767168 L13.4301668,66.6158083 Z M27.0571149,63.4590326 L59.4874268,31.02863 L48.994675,20.5355154 L16.5409674,52.9428851 L27.0571149,63.4590326 Z M25.966045,37.7376399 L36.7605821,26.94274 L22.5768547,12.7819548 C22.3774479,12.5896211 22.1111187,12.4812577 21.8340892,12.4801695 C21.5553368,12.4801695 21.2998894,12.5964222 21.0909611,12.7819548 L11.8053504,22.0909611 C11.4107988,22.4855127 11.4107988,23.1589074 11.8053504,23.5768547 L14.6143658,26.38587 L20.440962,20.5589111 C20.7427473,20.2571258 21.207123,20.0715024 21.6945317,20.0715024 C22.2750694,20.0715024 22.87864,20.3035543 23.2498866,20.6981059 C23.644529,21.0927482 23.8768529,21.6268574 23.8534572,22.1606945 C23.8534572,22.6481032 23.6679246,23.0890833 23.3427437,23.3909593 L17.4697189,29.264256 L19.675073,31.4696101 L25.4553314,25.6890797 C25.8034545,25.3642615 26.2678303,25.1786381 26.7786345,25.1786381 C27.3589002,25.1786381 27.9390751,25.41069 28.3340802,25.7822994 C29.0304171,26.4786363 29.2390733,27.825063 28.4498794,28.5908613 L22.6232832,34.4178203 L25.966045,37.7376399 Z M62.1338517,28.3589002 L65.5694705,24.9232814 C65.9874177,24.5053341 66.3356315,23.971497 66.3590271,23.7390824 C66.3884077,23.4479067 66.2863919,23.158182 66.0802747,22.9498885 L57.0964494,13.9661538 C56.8846193,13.7808932 56.6115798,13.6816885 56.3302883,13.6874014 L56.3302883,13.2233884 L56.1910935,13.6874014 C55.7730556,13.7337392 55.4018996,14.081953 55.0767186,14.4071339 L51.6410998,17.8427527 L62.1338517,28.3589002 Z" id="Fill-1" fill="#5587F2"></path>
            </g>
        </g>
    </g>
</svg>