<svg width="80px" height="80px" viewBox="0 0 80 80" version="1.1" xmlns="http://www.w3.org/2000/svg" xmlns:xlink="http://www.w3.org/1999/xlink">
    <g id="final" stroke="none" stroke-width="1" fill="none" fill-rule="evenodd">
        <g id="pc端1440" transform="translate(-474.000000, -2552.000000)">
            <g id="编组-4" transform="translate(474.000000, 2552.000000)">
                <rect id="矩形备份-8" x="0" y="0" width="80" height="80"></rect>
                <path d="M71.975,12 C73.0933766,12 74,12.9066234 74,14.025 L74,14.0464286 C74,15.1648052 73.0933766,16.0714286 71.975,16.0714286 L69.92,16.071 L69.919,51.357 L71.975,51.3571429 C73.0933766,51.3571429 74,52.2637662 74,53.3821429 L74,53.4035714 C74,54.521948 73.0933766,55.4285714 71.975,55.4285714 L42.039,55.428 L42.039,64.928 L63.815,64.9285714 C64.9333766,64.9285714 65.84,65.8351948 65.84,66.9535714 L65.84,66.975 C65.84,68.0933766 64.9333766,69 63.815,69 L16.185,69 C15.0666234,69 14.16,68.0933766 14.16,66.975 L14.16,66.9535714 C14.16,65.8351948 15.0666234,64.9285714 16.185,64.9285714 L37.959,64.928 L37.959,55.428 L8.025,55.4285714 C6.90662338,55.4285714 6,54.521948 6,53.4035714 L6,53.3821429 C6,52.2637662 6.90662338,51.3571429 8.025,51.3571429 L10.08,51.357 L10.08,16.071 L8.025,16.0714286 C6.90662338,16.0714286 6,15.1648052 6,14.0464286 L6,14.025 C6,12.9066234 6.90662338,12 8.025,12 L71.975,12 Z M65.839,16.071 L14.16,16.071 L14.16,51.357 L65.839,51.357 L65.839,16.071 Z M45.3233785,27.7681933 C46.3921936,26.7283766 48.1015774,26.7518845 49.1413941,27.8206996 L49.1413941,27.8206996 L57.6769965,36.5943429 C58.4303605,37.3687168 58.4303327,38.6021024 57.6769338,39.3764423 C57.6647515,39.3889632 57.652396,39.4013143 57.6398709,39.4134922 C56.8924154,40.1402233 55.6973511,40.1234229 54.97062,39.3759675 L54.97062,39.3759675 L47.2123394,31.3964423 L39.2702082,39.6148577 C39.250995,39.6347392 39.2314776,39.6543244 39.2116629,39.6736064 C38.1429792,40.7135582 36.4335925,40.6902664 35.3936407,39.6215827 L35.3936407,39.6215827 L30.7806225,34.8811154 L26.379929,39.4041277 L26.379929,39.4041277 L26.3435948,39.440469 C25.5962794,40.1678609 24.4007929,40.1517097 23.673401,39.4043942 C22.9200402,38.6303986 22.9198799,37.3972915 23.6730394,36.6231001 L23.6730394,36.6231001 L28.8465531,31.3051165 C28.8634386,31.2877596 28.8805567,31.2706306 28.897903,31.2537341 C29.9660782,30.2132601 31.6754761,30.2357163 32.7159501,31.3038915 L32.7159501,31.3038915 L37.3289928,36.03975 L45.264484,27.8272884 C45.28381,27.8072879 45.3034438,27.7875872 45.3233785,27.7681933 Z" id="形状结合" fill="#5587F2"></path>
            </g>
        </g>
    </g>
</svg>